<svg width="50" height="50" viewBox="0 0 46 44" fill="none" xmlns="http://www.w3.org/2000/svg">
<path d="M12.6875 24.75C19.4185 24.75 24.875 19.2935 24.875 12.5625C24.875 5.83153 19.4185 0.375 12.6875 0.375C5.95653 0.375 0.5 5.83153 0.5 12.5625C0.5 19.2935 5.95653 24.75 12.6875 24.75Z" fill="#4285F4"/>
<path d="M33.3125 24.75C36.4191 24.75 38.9375 22.2316 38.9375 19.125C38.9375 16.0184 36.4191 13.5 33.3125 13.5C30.2059 13.5 27.6875 16.0184 27.6875 19.125C27.6875 22.2316 30.2059 24.75 33.3125 24.75Z" fill="#EA4435"/>
<path d="M33.3125 43.5C37.4546 43.5 40.8125 40.1421 40.8125 36C40.8125 31.8579 37.4546 28.5 33.3125 28.5C29.1704 28.5 25.8125 31.8579 25.8125 36C25.8125 40.1421 29.1704 43.5 33.3125 43.5Z" fill="#FBC02D"/>
<path d="M42.6875 14.4375C44.2408 14.4375 45.5 13.1783 45.5 11.625C45.5 10.0717 44.2408 8.8125 42.6875 8.8125C41.1342 8.8125 39.875 10.0717 39.875 11.625C39.875 13.1783 41.1342 14.4375 42.6875 14.4375Z" fill="#00AC47"/>
</svg>
