<svg width="50" height="50" viewBox="0 0 46 46" fill="none" xmlns="http://www.w3.org/2000/svg">
<path d="M45.5 3C45.5 1.6193 44.3807 0.5 43 0.5C41.6193 0.5 40.5 1.6193 40.5 3V20.5C40.5 22.489 39.7097 24.3967 38.3032 25.8032C36.8967 27.2097 34.989 28 33 28H9.03552L17.2678 19.7677C18.244 18.7915 18.244 17.2085 17.2678 16.2322C16.2915 15.2559 14.7085 15.2559 13.7322 16.2322L1.23223 28.7323C0.255925 29.7085 0.255925 31.2915 1.23223 32.2677L13.7322 44.7677C14.7085 45.744 16.2915 45.744 17.2678 44.7677C18.244 43.7915 18.244 42.2085 17.2678 41.2323L9.03552 33H33C36.3152 33 39.4947 31.683 41.8387 29.3387C44.183 26.9947 45.5 23.8152 45.5 20.5V3Z" fill="current"/>
</svg>
