<svg width="50" height="50" viewBox="0 0 42 35" fill="none" xmlns="http://www.w3.org/2000/svg">
<path d="M22.1526 2.11047V32.521C22.1526 34.4473 21.0379 34.9084 19.6768 33.5473L10.5315 24.4021H4.28838C3.36142 24.3987 2.47338 24.029 1.81792 23.3736C1.16246 22.7181 0.792757 21.8301 0.789429 20.9031V13.7284C0.792757 12.8014 1.16246 11.9134 1.81792 11.2579C2.47338 10.6025 3.36142 10.2327 4.28838 10.2294H10.5315L19.6768 1.08416C21.0347 -0.273738 22.1526 0.184156 22.1526 2.11047ZM29.9463 25.1978C32.0366 23.1073 33.211 20.2721 33.211 17.3157C33.211 14.3594 32.0366 11.5241 29.9463 9.43363C29.618 9.10532 29.1727 8.92088 28.7084 8.92088C28.2441 8.92088 27.7988 9.10532 27.4705 9.43363C27.1422 9.76194 26.9577 10.2072 26.9577 10.6715C26.9577 11.1358 27.1422 11.5811 27.4705 11.9094C28.9023 13.345 29.7064 15.2898 29.7064 17.3173C29.7064 19.3449 28.9023 21.2897 27.4705 22.7252C27.3081 22.8878 27.1794 23.0807 27.0916 23.293C27.0038 23.5054 26.9587 23.7329 26.9588 23.9626C26.959 24.1924 27.0044 24.4199 27.0924 24.6321C27.1805 24.8443 27.3095 25.0371 27.4721 25.1994C27.6346 25.3618 27.8276 25.4905 28.0399 25.5783C28.2522 25.6661 28.4797 25.7112 28.7095 25.7111C28.9392 25.7109 29.1667 25.6655 29.3789 25.5775C29.5911 25.4894 29.7839 25.3604 29.9463 25.1978ZM35.6021 30.8568C37.3818 29.0797 38.7936 26.9692 39.757 24.6459C40.7203 22.3227 41.2161 19.8323 41.2161 17.3173C41.2161 14.8023 40.7203 12.3119 39.757 9.98869C38.7936 7.66546 37.3818 5.55493 35.6021 3.77784C35.4397 3.61528 35.2469 3.48628 35.0347 3.39823C34.8225 3.31017 34.595 3.26477 34.3653 3.26462C34.1355 3.26448 33.908 3.30959 33.6957 3.39737C33.4834 3.48516 33.2904 3.61391 33.1278 3.77626C32.9653 3.93862 32.8363 4.1314 32.7482 4.34361C32.6602 4.55582 32.6148 4.78329 32.6146 5.01304C32.6145 5.24279 32.6596 5.47032 32.7474 5.68264C32.8352 5.89496 32.9639 6.08791 33.1263 6.25047C34.5795 7.7035 35.7323 9.42856 36.5189 11.3272C37.3054 13.2257 37.7102 15.2607 37.7102 17.3157C37.7102 19.3708 37.3054 21.4057 36.5189 23.3043C35.7323 25.2029 34.5795 26.928 33.1263 28.381C32.798 28.7093 32.6135 29.1546 32.6135 29.6189C32.6135 30.0832 32.798 30.5285 33.1263 30.8568C33.4546 31.1851 33.8999 31.3695 34.3642 31.3695C34.8285 31.3695 35.2737 31.1851 35.6021 30.8568Z" fill="current"/>
</svg>
