<svg width="50" height="50" viewBox="0 0 46 35" fill="none" xmlns="http://www.w3.org/2000/svg">
<path d="M21.9768 2.59373V33.0043C21.9768 34.9306 20.8621 35.3916 19.501 34.0306L10.3558 24.8853H4.11575C3.18854 24.8836 2.29969 24.515 1.64346 23.86C0.987227 23.2049 0.616984 22.3167 0.613647 21.3895V14.2148C0.616144 13.2873 0.985483 12.3984 1.64103 11.7423C2.29658 11.0862 3.1851 10.716 4.1126 10.7127H10.3558L19.501 1.56741C20.8589 0.209519 21.9768 0.670572 21.9768 2.59373ZM44.8747 24.3453C45.0373 24.5079 45.1662 24.7009 45.2542 24.9133C45.3422 25.1257 45.3875 25.3533 45.3875 25.5832C45.3875 25.8131 45.3422 26.0408 45.2542 26.2532C45.1662 26.4655 45.0373 26.6585 44.8747 26.8211C44.7121 26.9837 44.5191 27.1126 44.3067 27.2006C44.0944 27.2886 43.8667 27.3339 43.6368 27.3339C43.4069 27.3339 43.1793 27.2886 42.9669 27.2006C42.7545 27.1126 42.5615 26.9837 42.3989 26.8211L35.8558 20.2748L29.3094 26.8211C28.9811 27.1494 28.5358 27.3339 28.0715 27.3339C27.6072 27.3339 27.162 27.1494 26.8336 26.8211C26.5053 26.4928 26.3209 26.0475 26.3209 25.5832C26.3209 25.1189 26.5053 24.6736 26.8336 24.3453L33.38 17.799L26.8336 11.2527C26.5058 10.9244 26.3217 10.4793 26.322 10.0152C26.3223 9.55124 26.5069 9.10636 26.8352 8.77847C27.1635 8.45058 27.6087 8.26654 28.0727 8.26683C28.5367 8.26713 28.9815 8.45174 29.3094 8.78005L35.8526 15.3264L42.3958 8.78005C42.7236 8.45174 43.1685 8.26713 43.6325 8.26683C44.0965 8.26654 44.5417 8.45058 44.87 8.77847C45.1983 9.10636 45.3829 9.55124 45.3832 10.0152C45.3835 10.4793 45.1994 10.9244 44.8715 11.2527L38.3284 17.799L44.8747 24.3453Z" fill="current"/>
</svg>
