<svg viewBox="0 0 60 60" fill="none" xmlns="http://www.w3.org/2000/svg">
<path d="M51.2126 8.78648C45.7934 3.36293 38.2744 -0.00164003 30 5.99725e-07C21.7257 -0.00164003 14.2057 3.36293 8.78637 8.78648C3.36281 14.2058 -0.00175712 21.7257 6.88438e-07 30C-0.00175712 38.2744 3.36281 45.7943 8.78637 51.2136C14.2057 56.6372 21.7257 60.0018 30 60C38.2744 60.0018 45.7934 56.6372 51.2126 51.2136C56.6371 45.7943 60.0016 38.2744 60 30C60.0016 21.7257 56.6372 14.2058 51.2126 8.78648ZM46.8134 13.1866C51.1215 17.4991 53.7759 23.4236 53.7778 30C53.7761 36.5764 51.1215 42.5009 46.8134 46.8134C42.5 51.1215 36.5755 53.7761 30 53.7777C23.4236 53.7761 17.4991 51.1215 13.1866 46.8134C8.87836 42.5009 6.22395 36.5764 6.22219 30C6.22383 23.4237 8.87836 17.4991 13.1865 13.1866C17.499 8.87848 23.4236 6.22395 29.9999 6.22219C36.5755 6.22406 42.5 8.87848 46.8134 13.1866Z" fill="current"/>
<path d="M30 38.9541C28.1285 38.9541 26.5955 40.4879 26.5955 42.3586C26.5955 44.2293 28.1285 45.7622 30 45.7622C31.8705 45.7622 33.4044 44.2291 33.4044 42.3586C33.4044 40.4879 31.8705 38.9541 30 38.9541Z" fill="current"/>
<path d="M30 36.5609C30.7656 36.5609 31.8403 33.1788 32.1163 32.1902C32.9748 29.3273 33.6805 25.4255 33.6805 22.1989C33.6805 18.3475 32.6059 14.2379 30 14.2379C27.3923 14.2379 26.3186 18.3473 26.3186 22.1989C26.3186 25.4256 27.0252 29.3275 27.8836 32.1902C28.1597 33.1788 29.2327 36.5609 30 36.5609Z" fill="current"/>
</svg>
