<svg width="50" height="50" viewBox="0 0 55 51" fill="none" xmlns="http://www.w3.org/2000/svg">
<path d="M48.2255 29.6128C48.2255 28.5773 47.386 27.7378 46.3505 27.7378H38.8505C37.815 27.7378 36.9755 28.5773 36.9755 29.6128V46.4878H33.2255V5.86279C33.2255 4.04202 33.2215 2.86507 33.105 1.99787C32.9955 1.18459 32.819 0.929693 32.6763 0.786968C32.5335 0.644243 32.2788 0.467718 31.4655 0.358368C30.5983 0.241768 29.4213 0.237793 27.6005 0.237793C25.7798 0.237793 24.6028 0.241768 23.7355 0.358368C22.9223 0.467718 22.6674 0.644243 22.5247 0.786968C22.382 0.929693 22.2054 1.18459 22.0961 1.99787C21.9795 2.86507 21.9755 4.04202 21.9755 5.86279V46.4878H18.2255V17.1128C18.2255 16.0773 17.386 15.2378 16.3505 15.2378H8.85052C7.815 15.2378 6.97552 16.0773 6.97552 17.1128V46.4878H3.22552H2.60052C1.565 46.4878 0.725525 47.3273 0.725525 48.3628C0.725525 49.3983 1.565 50.2378 2.60052 50.2378H52.6005C53.636 50.2378 54.4755 49.3983 54.4755 48.3628C54.4755 47.3273 53.636 46.4878 52.6005 46.4878H51.9755H48.2255V29.6128Z" fill="white"/>
</svg>
