<svg width="50" height="50" viewBox="0 0 50 49" fill="none" xmlns="http://www.w3.org/2000/svg">
<path fill-rule="evenodd" clip-rule="evenodd" d="M12.5 20C12.5 18.6193 13.6193 17.5 15 17.5H15.025C16.4057 17.5 17.525 18.6193 17.525 20C17.525 21.3808 16.4057 22.5 15.025 22.5H15C13.6193 22.5 12.5 21.3808 12.5 20ZM22.5 20C22.5 18.6193 23.6193 17.5 25 17.5H25.025C26.4058 17.5 27.525 18.6193 27.525 20C27.525 21.3808 26.4058 22.5 25.025 22.5H25C23.6193 22.5 22.5 21.3808 22.5 20ZM35 17.5C33.6193 17.5 32.5 18.6193 32.5 20C32.5 21.3808 33.6193 22.5 35 22.5H35.025C36.4058 22.5 37.525 21.3808 37.525 20C37.525 18.6193 36.4058 17.5 35.025 17.5H35ZM12.3354 6.11791e-06C12.3901 6.11791e-06 12.445 6.11791e-06 12.5 6.11791e-06H37.6645C39.8808 -0.000118882 41.7903 -0.000218928 43.3195 0.205381C44.9583 0.425706 46.5293 0.922556 47.8033 2.19671C49.0775 3.47088 49.5743 5.04176 49.7948 6.68053C50.0003 8.20971 50.0003 10.1193 50 12.3355V27.6645C50.0003 29.8808 50.0003 31.7903 49.7948 33.3195C49.5743 34.9583 49.0775 36.5293 47.8033 37.8033C46.5293 39.0775 44.9583 39.5743 43.3195 39.7948C41.7903 40.0003 39.8808 40.0003 37.6645 40H30C29.716 40 29.4393 40.09 29.2095 40.257L18.1892 48.2718C15.8215 49.9938 12.5 48.3025 12.5 45.3748V40C10.5651 40 8.60296 40.0533 6.68053 39.7948C5.04176 39.5743 3.47088 39.0775 2.19671 37.8033C0.922556 36.5293 0.425706 34.9583 0.205381 33.3195C-0.000218928 31.7903 -0.000118882 29.8808 6.11791e-06 27.6645V12.5C6.11791e-06 12.445 6.11791e-06 12.3901 6.11791e-06 12.3354C-0.000118882 10.1192 -0.000218928 8.20968 0.205381 6.68053C0.425706 5.04176 0.922556 3.47088 2.19671 2.19671C3.47088 0.922556 5.04176 0.425706 6.68053 0.205381C8.20968 -0.000218928 10.1192 -0.000118882 12.3354 6.11791e-06Z" fill="current"/>
</svg>
