<svg width="50" height="50" viewBox="0 0 50 50" fill="none" xmlns="http://www.w3.org/2000/svg">
<path d="M29.072 46.1795L27.7168 48.4692C26.5088 50.51 23.4912 50.51 22.2832 48.4692L20.928 46.1795C19.8768 44.4035 19.3512 43.5158 18.507 43.0245C17.6627 42.5335 16.5998 42.5153 14.4739 42.4788C11.3355 42.4245 9.36722 42.2323 7.71645 41.5485C4.6536 40.2798 2.22018 37.8465 0.9515 34.7835C-5.96046e-08 32.4865 0 29.5743 0 23.75V21.25C0 13.0664 -1.19209e-07 8.97462 1.842 5.96877C2.8727 4.28682 4.28682 2.8727 5.96877 1.842C8.97462 -1.19209e-07 13.0664 0 21.25 0H28.75C36.9335 0 41.0252 -1.19209e-07 44.0312 1.842C45.7133 2.8727 47.1273 4.28682 48.158 5.96877C50 8.97462 50 13.0664 50 21.25V23.75C50 29.5743 50 32.4865 49.0485 34.7835C47.7798 37.8465 45.3465 40.2798 42.2835 41.5485C40.6328 42.2323 38.6645 42.4245 35.526 42.4788C33.4 42.5153 32.3373 42.5335 31.493 43.0245C30.6488 43.5155 30.123 44.4035 29.072 46.1795Z" fill="current"/>
</svg>
