<svg width="50" height="50" viewBox="0 0 44 44" fill="none" xmlns="http://www.w3.org/2000/svg">
<path d="M7 32H4.5C3.83696 32 3.20107 31.7366 2.73223 31.2678C2.26339 30.7989 2 30.163 2 29.5V4.5C2 3.83696 2.26339 3.20107 2.73223 2.73223C3.20107 2.26339 3.83696 2 4.5 2H29.5C30.163 2 30.7989 2.26339 31.2678 2.73223C31.7366 3.20107 32 3.83696 32 4.5V7M14.5 42H39.5C40.163 42 40.7989 41.7366 41.2678 41.2678C41.7366 40.7989 42 40.163 42 39.5V14.5C42 13.837 41.7366 13.2011 41.2678 12.7322C40.7989 12.2634 40.163 12 39.5 12H14.5C13.837 12 13.2011 12.2634 12.7322 12.7322C12.2634 13.2011 12 13.837 12 14.5V39.5C12 40.163 12.2634 40.7989 12.7322 41.2678C13.2011 41.7366 13.837 42 14.5 42Z" stroke="current" stroke-width="3.5" stroke-linejoin="round"/>
</svg>
