<svg width="50" height="50" viewBox="0 0 55 55" fill="none" xmlns="http://www.w3.org/2000/svg">
<path d="M24.6621 7.72567H14.1621C9.96171 7.72567 7.86151 7.72567 6.25718 8.54312C4.84596 9.26217 3.69861 10.4095 2.97956 11.8207C2.16211 13.4251 2.16211 15.5253 2.16211 19.7257V40.7256C2.16211 44.9261 2.16211 47.0263 2.97956 48.6306C3.69861 50.0418 4.84596 51.1891 6.25718 51.9081C7.86151 52.7256 9.96171 52.7256 14.1621 52.7256H35.1621C39.3626 52.7256 41.4626 52.7256 43.0671 51.9081C44.4784 51.1891 45.6256 50.0418 46.3446 48.6306C47.1621 47.0263 47.1621 44.9261 47.1621 40.7256V30.2256M17.162 37.7256H21.3484C22.5714 37.7256 23.1829 37.7256 23.7584 37.5876C24.2684 37.4651 24.7561 37.2631 25.2036 36.9888C25.7081 36.6796 26.1406 36.2473 27.0054 35.3826L50.9121 11.4757C52.9831 9.4046 52.9831 6.04672 50.9121 3.97567C48.8411 1.9046 45.4831 1.9046 43.4121 3.97565L19.5052 27.8826C18.6404 28.7473 18.2081 29.1796 17.8988 29.6843C17.6247 30.1316 17.4227 30.6193 17.3002 31.1296C17.162 31.7048 17.162 32.3163 17.162 33.5393V37.7256Z" stroke="current" stroke-width="4" stroke-linecap="round" stroke-linejoin="round"/>
</svg>
