<svg width="50" height="50" viewBox="0 0 49 49" fill="none" xmlns="http://www.w3.org/2000/svg">
<path d="M34.1609 2.32575L46.5822 14.7471C48.7789 16.9438 48.7789 20.5053 46.5822 22.702L24.8777 44.4032L40.1224 44.4037C41.0716 44.4037 41.8561 45.1091 41.9803 46.0243L41.9974 46.2787C41.9974 47.228 41.292 48.0124 40.3768 48.1366L40.1224 48.1537L19.0973 48.1568C17.5568 48.2409 15.9883 47.6945 14.8115 46.5177L2.3902 34.0964C0.193501 31.8997 0.193501 28.3382 2.3902 26.1415L26.2059 2.32575C28.4026 0.129048 31.9642 0.129048 34.1609 2.32575ZM8.75768 25.0732L5.04185 28.7931C4.30962 29.5253 4.30962 30.7125 5.04185 31.4448L17.4632 43.8661C17.8293 44.2322 18.3091 44.4152 18.789 44.4152L18.8612 44.4037L18.9574 44.4077C19.3797 44.3698 19.7916 44.1893 20.1148 43.8661L23.8302 40.1482L8.75768 25.0732ZM28.8576 4.9774L11.4102 22.4207L26.4827 37.4957L43.9305 20.0504C44.6628 19.3181 44.6628 18.1309 43.9305 17.3987L31.5092 4.9774C30.777 4.24516 29.5898 4.24516 28.8576 4.9774Z" fill="current"/>
</svg>
