<svg width="50" height="50" viewBox="0 0 50 50" fill="none" xmlns="http://www.w3.org/2000/svg">
<path fill-rule="evenodd" clip-rule="evenodd" d="M25 0C38.805 0 50 11.195 50 25C50 38.805 38.805 50 25 50C11.195 50 0 38.805 0 25C0 11.195 11.195 0 25 0ZM25 5C13.9725 5 5 13.9725 5 25C5 36.0275 13.9725 45 25 45C36.0275 45 45 36.0275 45 25C45 13.9725 36.0275 5 25 5ZM30.7325 15.7325L34.2675 19.2675L28.535 25L34.2675 30.7325L30.7325 34.2675L25 28.535L19.2675 34.2675L15.7325 30.7325L21.465 25L15.7325 19.2675L19.2675 15.7325L25 21.465L30.7325 15.7325Z" fill="black"/>
</svg>
