<svg viewBox="0 0 52 60" fill="none" xmlns="http://www.w3.org/2000/svg">
<path d="M19.6242 0.273398C18.2428 0.273398 17.3121 1.36934 17.3121 2.71945V14.3705C17.3121 15.6954 16.6308 16.3291 15.5862 16.3291C14.6321 16.3291 14.0692 15.542 14.0692 14.6074L14.0172 2.5043C14.0172 0.97711 12.6844 0 11.4476 0C10.2103 0 8.87815 0.97711 8.87815 2.5043V14.6074C8.87815 15.5421 8.26268 16.3291 7.30842 16.3291C6.2651 16.3291 5.5833 15.6954 5.5833 14.3705V2.71945C5.5833 1.36934 4.65248 0.273398 3.27108 0.273398C1.88862 0.275742 1.15233 1.46555 1.00245 2.6325C0.852562 3.80051 0.0854529 12.1419 0.00142946 17.4731C-0.0837659 22.8056 3.65955 25.9243 5.79213 26.915C7.25018 27.5923 8.30557 29.0487 8.30557 30.8003L7.43323 60H15.4616L14.5893 30.8003C14.5893 29.0488 15.644 27.5924 17.1021 26.915C19.2352 25.9243 22.9786 22.8056 22.8939 17.4731C22.8093 12.1419 22.0433 3.80051 21.8923 2.6325C21.7418 1.46555 21.0062 0.275742 19.6242 0.273398Z" fill="current"/>
<path d="M40.1388 0.461133C34.5844 0.461133 28.692 6.3873 28.692 15.6964C28.692 21.0289 32.7219 25.3581 34.4838 26.915C36.2067 28.4389 36.9973 29.0487 36.9973 30.8003L36.1249 60H44.1533L43.2804 30.8003C43.2804 29.0488 44.0721 28.4389 45.795 26.915C47.5545 25.358 51.585 21.0289 51.585 15.6964C51.5851 6.3873 45.6933 0.461133 40.1388 0.461133Z" fill="current"/>
</svg>
