<svg viewBox="0 0 60 36" fill="none" xmlns="http://www.w3.org/2000/svg">
<path d="M29.2623 9.64863C26.9531 9.64981 24.8727 10.5819 23.3568 12.0943C21.8443 13.6103 20.9122 15.6908 20.9111 17.9999C20.9122 20.3092 21.8443 22.3895 23.3568 23.9054C24.8727 25.4179 26.9532 26.35 29.2623 26.3511C31.5716 26.35 33.6519 25.4179 35.1679 23.9054C36.6803 22.3895 37.6124 20.3091 37.6136 17.9999C37.6124 15.6907 36.6803 13.6103 35.1679 12.0943C33.6519 10.5819 31.5715 9.64981 29.2623 9.64863Z" fill="current"/>
<path d="M29.2623 0.71344C19.716 0.71344 11.9757 8.45367 11.9757 18C11.9757 27.5463 19.7159 35.2866 29.2623 35.2866C38.8098 35.2866 46.5489 27.5463 46.5489 18C46.5489 8.45367 38.8098 0.71344 29.2623 0.71344ZM29.2623 28.6822C23.3624 28.6811 18.5814 23.8999 18.5802 18.0001C18.5814 12.1002 23.3624 7.31918 29.2623 7.31801C35.1622 7.31918 39.9432 12.1003 39.9444 18.0001C39.9432 23.8999 35.1621 28.6811 29.2623 28.6822Z" fill="current"/>
<path d="M2.56816 8.22375C0.477537 15.4256 0.035974 19.9666 0.035974 19.9666C0.035974 19.9666 -0.191604 22.7299 0.498044 22.7299C1.18664 22.7299 2.89371 22.7299 2.89371 22.7299V32.7452C2.89371 33.8252 3.77121 34.7027 4.85121 34.7027H6.36832C7.44832 34.7027 8.32582 33.8252 8.32582 32.7452V4.30641C8.32593 1.54313 4.64074 1.08457 2.56816 8.22375Z" fill="current"/>
<path d="M58.3486 2.77231H58.344C57.6873 2.77231 57.6213 3.30492 57.6213 3.96164V11.5425H55.7173V3.96164C55.7173 3.30492 55.1846 2.77231 54.5279 2.77231C53.8712 2.77231 53.3386 3.30492 53.3386 3.96164V11.5425H51.1034V3.96164C51.1034 3.30492 51.0374 2.77231 50.3807 2.77231H50.3762C49.4646 2.77231 48.7248 3.51211 48.7248 4.42371V11.5425C48.7248 14.6017 49.5226 15.4234 50.3272 16.228C51.2013 17.1021 51.6463 17.3934 51.6463 18.4132C51.6463 19.433 51.6463 22.7299 51.6463 22.7299V32.7452C51.6463 33.8252 52.5239 34.7027 53.6038 34.7027H55.1209C56.2009 34.7027 57.0784 33.8252 57.0784 32.7452V18.4132C57.0784 17.3934 57.5234 17.1021 58.3975 16.228C59.2021 15.4234 59.9999 14.6017 59.9999 11.5425V4.42371C60 3.51211 59.2602 2.77231 58.3486 2.77231Z" fill="current"/>
</svg>
