<svg viewBox="0 0 58 38" fill="none" xmlns="http://www.w3.org/2000/svg">
<path d="M57.4211 21.8947C57.4211 30.6137 44.6963 37.6842 29 37.6842C13.3037 37.6842 0.578979 30.6137 0.578979 21.8947C0.578979 13.1758 13.3037 6.10524 29 6.10524C44.6963 6.10524 57.4211 13.1758 57.4211 21.8947Z" fill="#939598"/>
<path d="M57.4211 18.7368C57.4211 27.4558 44.6963 34.5263 29 34.5263C13.3037 34.5263 0.578979 27.4558 0.578979 18.7368C0.578979 10.0179 13.3037 2.94735 29 2.94735C44.6963 2.94735 57.4211 10.0179 57.4211 18.7368Z" fill="#F1F2F2"/>
<path d="M52.3681 18.1231C52.3681 24.7578 41.906 30.1404 28.9997 30.1404C16.0934 30.1404 5.6313 24.7578 5.6313 18.1231C5.6313 11.4868 16.0937 6.10524 29 6.10524C41.9063 6.10524 52.3681 11.4868 52.3681 18.1231Z" fill="#F4900C"/>
<path d="M21.1053 23.4737C15.1842 23.4737 5.31582 20.2163 5.31582 14.7895C5.31582 8.27629 11.36 0.676819 21.1053 0.676819C30.8506 0.676819 36.8948 9.36103 36.8948 14.7895C36.8948 20.2163 28.0132 23.4737 21.1053 23.4737Z" fill="#EEEEEE"/>
<path d="M7.90545 15.296C7.36071 15.0749 7.09861 14.4528 7.32124 13.9081C7.54387 13.3649 8.16598 13.1028 8.70914 13.3239L10.6812 14.1276C11.226 14.3486 11.4865 14.9691 11.2655 15.5155C11.0428 16.0602 10.4223 16.3223 9.87756 16.0997L7.90545 15.296Z" fill="#CCD6DD"/>
<path d="M13.754 9.87529C13.2693 10.2085 12.6061 10.0853 12.2746 9.59898C11.943 9.11424 12.0661 8.45108 12.5493 8.1195L14.3082 6.91477C14.7914 6.58319 15.4546 6.70635 15.7877 7.19108C16.1193 7.67582 15.9946 8.33898 15.5098 8.67213L13.754 9.87529Z" fill="#CCD6DD"/>
<path d="M27.9646 17.77C27.4798 18.1032 26.8167 17.98 26.4851 17.4937C26.1535 17.0106 26.2767 16.3458 26.7598 16.0142L28.5188 14.8095C29.0019 14.4779 29.6651 14.6011 29.9982 15.0858C30.3298 15.5706 30.2051 16.2337 29.7203 16.5653L27.9646 17.77Z" fill="#CCD6DD"/>
<path d="M19.0468 14.8643C18.2384 14.5359 17.85 13.6138 18.18 12.8053C18.51 12.0001 19.4321 11.6101 20.2389 11.9385L23.1631 13.1322C23.97 13.4606 24.3584 14.3811 24.03 15.1896C23.7016 15.9964 22.7794 16.3848 21.9726 16.0548L19.0468 14.8643Z" fill="#CCD6DD"/>
<path d="M26.8536 8.98019C26.3073 8.75914 26.0452 8.13703 26.2694 7.5923C26.4904 7.04914 27.1126 6.78703 27.6557 7.00808L29.6294 7.81177C30.1726 8.03282 30.4347 8.65335 30.212 9.19966C29.9894 9.74282 29.3704 10.0049 28.8241 9.78387L26.8536 8.98019Z" fill="#CCD6DD"/>
<path d="M17.8001 18.0768C18.3496 17.8668 18.9653 18.1431 19.1753 18.6942C19.3822 19.2405 19.1059 19.8579 18.5564 20.0647L16.5653 20.8226C16.019 21.0326 15.4032 20.7563 15.1948 20.2068C14.9832 19.6558 15.2596 19.0416 15.8106 18.8316L17.8001 18.0768Z" fill="#CCD6DD"/>
<path d="M47.9474 15.5789C47.9474 17.3221 46.5327 18.7368 44.7895 18.7368H43.2106C41.4674 18.7368 40.0527 17.3221 40.0527 15.5789C40.0527 13.8358 41.4674 12.421 43.2106 12.421H44.7895C46.5327 12.421 47.9474 13.8358 47.9474 15.5789Z" fill="#FFD983"/>
<path d="M43.2106 22.6842C43.2106 23.9916 42.1495 25.0526 40.8421 25.0526H39.2632C37.9558 25.0526 36.8948 23.9916 36.8948 22.6842C36.8948 21.3768 37.9558 20.3158 39.2632 20.3158H40.8421C42.1495 20.3158 43.2106 21.3768 43.2106 22.6842Z" fill="#FFD983"/>
<path d="M33.7369 26.6316C33.7369 27.5047 33.0311 28.2105 32.1579 28.2105H30.579C29.7058 28.2105 29 27.5047 29 26.6316C29 25.7584 29.7058 25.0526 30.579 25.0526H32.1579C33.0311 25.0526 33.7369 25.7584 33.7369 26.6316Z" fill="#FFD983"/>
</svg>
