<svg width="50" height="50" viewBox="0 0 46 52" fill="none" xmlns="http://www.w3.org/2000/svg">
<path d="M1.31848 41.762H15.0685V44.887C15.0685 46.7104 14.3442 48.4591 13.0548 49.7484C11.7655 51.0377 10.0168 51.762 8.19348 51.762C6.37012 51.762 4.62143 51.0377 3.33212 49.7484C2.04281 48.4591 1.31848 46.7104 1.31848 44.887V41.762ZM11.3185 12.062C16.3185 12.062 18.8185 19.262 18.8185 24.262C18.8185 26.762 17.5685 29.262 16.3185 33.012L15.0685 36.762H1.31848C1.31848 34.262 0.0684814 30.512 0.0684814 24.262C0.0684814 18.012 5.06348 12.062 11.3185 12.062ZM41.4535 32.007L40.911 35.0845C40.5944 36.8804 39.5773 38.4769 38.0836 39.5229C36.5899 40.5689 34.7418 40.9786 32.946 40.662C31.1501 40.3454 29.5536 39.3284 28.5076 37.8347C27.4616 36.3409 27.0519 34.4929 27.3685 32.697L27.9135 29.622L41.4535 32.007ZM36.7635 1.02454C42.9235 2.10954 46.8085 8.83454 45.7235 14.9895C44.6385 21.147 42.756 24.622 42.3235 27.0845L28.781 24.697L28.201 20.787C27.621 16.877 26.826 14.197 27.2585 11.737C28.126 6.81204 31.8385 0.157038 36.7635 1.02454Z" fill="white"/>
</svg>
