<svg width="50" height="50" viewBox="0 0 33 23" fill="none" xmlns="http://www.w3.org/2000/svg">
<path d="M2.06587 9.65591C1.07177 9.65591 0.265869 10.4618 0.265869 11.4559C0.265869 12.45 1.07177 13.2559 2.06587 13.2559V9.65591ZM30.8659 13.2559C31.86 13.2559 32.6659 12.45 32.6659 11.4559C32.6659 10.4618 31.86 9.65591 30.8659 9.65591V13.2559ZM2.06587 19.2559C1.07177 19.2559 0.265869 20.0618 0.265869 21.0559C0.265869 22.05 1.07177 22.8559 2.06587 22.8559V19.2559ZM30.8659 22.8559C31.86 22.8559 32.6659 22.05 32.6659 21.0559C32.6659 20.0618 31.86 19.2559 30.8659 19.2559V22.8559ZM2.06587 0.0559082C1.07177 0.0559082 0.265869 0.861804 0.265869 1.85591C0.265869 2.85001 1.07177 3.65591 2.06587 3.65591V0.0559082ZM30.8659 3.65591C31.86 3.65591 32.6659 2.85001 32.6659 1.85591C32.6659 0.861804 31.86 0.0559082 30.8659 0.0559082V3.65591ZM2.06587 13.2559H30.8659V9.65591H2.06587V13.2559ZM2.06587 22.8559H30.8659V19.2559H2.06587V22.8559ZM2.06587 3.65591H30.8659V0.0559082H2.06587V3.65591Z" fill="white"/>
</svg>
