<svg width="50" height="50" viewBox="0 0 10 46" fill="none" xmlns="http://www.w3.org/2000/svg">
<path fill-rule="evenodd" clip-rule="evenodd" d="M5 8C6.38071 8 7.5 6.88071 7.5 5.5C7.5 4.11929 6.38071 3 5 3C3.61929 3 2.5 4.11929 2.5 5.5C2.5 6.88071 3.61929 8 5 8Z" stroke="current" stroke-width="4.5" stroke-linecap="round"/>
<path fill-rule="evenodd" clip-rule="evenodd" d="M5 25.5C6.38071 25.5 7.5 24.3807 7.5 23C7.5 21.6193 6.38071 20.5 5 20.5C3.61929 20.5 2.5 21.6193 2.5 23C2.5 24.3807 3.61929 25.5 5 25.5Z" stroke="current" stroke-width="4.5" stroke-linecap="round"/>
<path fill-rule="evenodd" clip-rule="evenodd" d="M5 43C6.38071 43 7.5 41.8807 7.5 40.5C7.5 39.1193 6.38071 38 5 38C3.61929 38 2.5 39.1193 2.5 40.5C2.5 41.8807 3.61929 43 5 43Z" stroke="current" stroke-width="4.5" stroke-linecap="round"/>
</svg>
