<svg width="50" height="50" viewBox="0 0 40 50" fill="none" xmlns="http://www.w3.org/2000/svg">
<path fill-rule="evenodd" clip-rule="evenodd" d="M31.2501 12.6575C31.2501 20.645 26.4251 27.5 20.0001 27.5C13.5701 27.5 8.75006 20.645 8.75006 12.655C8.75006 4.67 12.9001 0 20.0001 0C27.1001 0 31.2501 4.6675 31.2501 12.6575ZM0.255057 45.355C1.21756 46.5 5.36256 50 20.0001 50C34.6376 50 38.7801 46.5 39.7451 45.3575C39.8346 45.2477 39.9007 45.1208 39.9394 44.9845C39.9781 44.8482 39.9885 42.7055 39.9701 42.565C39.7501 40.36 37.7651 30.5 20.0001 30.5C2.23506 30.5 0.250057 40.36 0.0275567 42.565C0.00945147 42.7056 0.0202926 44.8485 0.0594153 44.9848C0.0985381 45.121 0.165116 45.2454 0.255057 45.355Z" fill="current"/>
</svg>
