<svg viewBox="0 0 50 50" fill="none" xmlns="http://www.w3.org/2000/svg">
<path fill-rule="evenodd" clip-rule="evenodd" d="M5 22.5C5 12.835 12.835 5 22.5 5C32.165 5 40 12.835 40 22.5C40 32.165 32.165 40 22.5 40C12.835 40 5 32.165 5 22.5ZM22.5 0C10.0736 0 0 10.0736 0 22.5C0 34.9265 10.0736 45 22.5 45C27.8125 45 32.695 43.1588 36.5443 40.0798L45.7323 49.2677C46.7085 50.244 48.2915 50.244 49.2677 49.2677C50.244 48.2915 50.244 46.7085 49.2677 45.7323L40.0798 36.5443C43.1588 32.695 45 27.8125 45 22.5C45 10.0736 34.9265 0 22.5 0Z" fill="current"/>
</svg>
