<svg width="50" height="50" viewBox="0 0 52 51" fill="none" xmlns="http://www.w3.org/2000/svg">
<path d="M50.7 7.82504L36.5 47.625C36.1603 48.6135 35.5194 49.4706 34.6674 50.076C33.8154 50.6814 32.7952 51.0045 31.75 51C30.7169 51.0118 29.7055 50.7032 28.855 50.1168C28.0044 49.5303 27.3564 48.6948 27 47.725L21.7 33.925L25.55 30.075L31.775 23.85C32.2458 23.3793 32.5102 22.7408 32.5102 22.075C32.5102 21.4093 32.2458 20.7708 31.775 20.3C31.3042 19.8293 30.6658 19.5648 30 19.5648C29.3342 19.5648 28.6958 19.8293 28.225 20.3L22 26.525L18.05 30.4L4.275 25.075C3.24633 24.7652 2.34482 24.1322 1.70401 23.2699C1.0632 22.4076 0.717163 21.3619 0.717163 20.2875C0.717163 19.2132 1.0632 18.1675 1.70401 17.3052C2.34482 16.4429 3.24633 15.8099 4.275 15.5L44.175 1.30004C45.0874 0.925167 46.0904 0.828571 47.0576 1.02241C48.0248 1.21625 48.9131 1.69187 49.6106 2.38939C50.3082 3.08692 50.7838 3.9752 50.9776 4.94242C51.1715 5.90964 51.0749 6.91259 50.7 7.82504Z" fill="current"/>
</svg>
