<svg viewBox="0 0 42 58" fill="none" xmlns="http://www.w3.org/2000/svg">
<path d="M40.0502 18.3133C40.7532 18.162 41.255 17.5419 41.255 16.8222V10.1711C41.255 9.71088 41.047 9.27471 40.6885 8.98467C40.3302 8.69569 39.86 8.5833 39.4098 8.67998L33.3604 9.97994V1.6192C33.3604 1.16733 33.1597 0.738539 32.8129 0.4485C32.4656 0.158461 32.008 0.0375232 31.5635 0.1185L27.03 0.940336C26.3044 1.0717 25.7768 1.70323 25.7768 2.44092V11.6099L16.3247 13.6411V5.51369C16.3247 5.06182 16.1239 4.63315 15.7772 4.34299C15.4305 4.05295 14.9728 3.93213 14.5277 4.01299L9.99373 4.83377C9.2681 4.96502 8.74064 5.59678 8.74064 6.33448V15.27L1.94986 16.7297C1.24685 16.8799 0.745056 17.502 0.745056 18.2208V24.8719C0.745056 25.3321 0.953181 25.7683 1.31154 26.0583C1.67037 26.3473 2.14006 26.4598 2.59088 26.3631L8.74064 25.0411V37.7431L1.94986 39.2028C1.24685 39.353 0.745056 39.9741 0.745056 40.6928V47.3417C0.745056 47.802 0.953181 48.238 1.31154 48.5282C1.67037 48.8172 2.14006 48.9296 2.59088 48.8329L8.74064 47.5109V56.4748C8.74064 56.9267 8.94127 57.3555 9.28814 57.6455C9.6349 57.9357 10.0925 58.0565 10.5376 57.9755L15.0711 57.1558C15.7967 57.0245 16.3248 56.3929 16.3248 55.6552V45.8821L25.7769 43.8508V52.5815C25.7769 53.0344 25.9775 53.4632 26.3244 53.7522C26.6713 54.0422 27.1289 54.163 27.5738 54.0821L32.1074 53.2613C32.833 53.1299 33.3606 52.4984 33.3606 51.7607V42.2207L40.0504 40.7832C40.7535 40.6319 41.2553 40.0118 41.2553 39.2921V32.6441C41.2553 32.1839 41.0472 31.7478 40.6888 31.4577C40.3304 31.1687 39.8603 31.0562 39.41 31.153L33.3607 32.453V19.751L40.0502 18.3133ZM25.7767 34.0827L16.3245 36.1131V23.4121L25.7767 21.3808V34.0827Z" fill="current"/>
</svg>
