<svg viewBox="0 0 48 48" fill="none" xmlns="http://www.w3.org/2000/svg">
<path fill-rule="evenodd" clip-rule="evenodd" d="M28.125 3.55L44.45 19.875C45.4969 20.9199 46.3275 22.1611 46.8942 23.5274C47.4609 24.8937 47.7526 26.3583 47.7526 27.8375C47.7526 29.3167 47.4609 30.7813 46.8942 32.1476C46.3275 33.5139 45.4969 34.7551 44.45 35.8L35.8 44.45C34.7551 45.4969 33.5139 46.3275 32.1476 46.8942C30.7813 47.4609 29.3167 47.7526 27.8375 47.7526C26.3584 47.7526 24.8937 47.4609 23.5274 46.8942C22.1611 46.3275 20.92 45.4969 19.875 44.45L3.55002 28.125C2.50183 27.0837 1.67049 25.845 1.10405 24.4804C0.537623 23.1158 0.247349 21.6525 0.250018 20.175V9C0.250018 6.67936 1.17189 4.45376 2.81283 2.81282C4.45378 1.17187 6.67937 0.25 9.00002 0.25H20.175C23.156 0.261064 26.0125 1.44677 28.125 3.55ZM14.5 22C18.6421 22 22 18.6421 22 14.5C22 10.3579 18.6421 7 14.5 7C10.3579 7 7 10.3579 7 14.5C7 18.6421 10.3579 22 14.5 22Z" fill="current"/>
</svg>
