<svg viewBox="0 0 53 53" fill="none" xmlns="http://www.w3.org/2000/svg">
<path d="M30.1233 46.7085L5.70331 22.2885C5.42331 22.0085 5.29331 21.6585 5.31331 21.2385C5.33331 20.8185 5.50331 20.4885 5.82331 20.2485C7.22331 19.1685 8.79331 18.6785 10.5333 18.7785C12.2733 18.8785 13.7633 19.5485 15.0033 20.7885L31.6233 37.3485C32.8633 38.6285 33.5433 40.1385 33.6633 41.8785C33.7833 43.6185 33.2833 45.1885 32.1633 46.5885C31.9233 46.9085 31.6033 47.0785 31.2033 47.0985C30.8033 47.1185 30.4433 46.9885 30.1233 46.7085ZM36.3033 35.6085L48.5433 19.8285L48.8433 20.1285C49.0833 20.4085 49.4033 20.5485 49.8033 20.5485C50.2033 20.5485 50.5433 20.4085 50.8233 20.1285L51.9033 19.0485C52.1833 18.7685 52.3233 18.4285 52.3233 18.0285C52.3233 17.6285 52.1833 17.2885 51.9033 17.0085L35.4033 0.508501C35.1233 0.228501 34.7833 0.088501 34.3833 0.088501C33.9833 0.088501 33.6433 0.228501 33.3633 0.508501L32.2833 1.5885C32.0033 1.8685 31.8633 2.2085 31.8633 2.6085C31.8633 3.0085 32.0033 3.3285 32.2833 3.5685L32.5833 3.8685L16.8033 16.1085C16.4433 16.3485 16.2533 16.6885 16.2333 17.1285C16.2133 17.5685 16.3433 17.9285 16.6233 18.2085L34.2033 35.7885C34.4833 36.0685 34.8433 36.1985 35.2833 36.1785C35.7233 36.1585 36.0633 35.9685 36.3033 35.6085ZM0.363312 52.0485L1.56331 46.2285L13.5033 34.2885L18.1233 38.9085L6.18331 50.8485L0.363312 52.0485Z" fill="current"/>
</svg>
