<svg width="50" height="50" viewBox="0 0 60 44" fill="none" xmlns="http://www.w3.org/2000/svg">
<path d="M0 0.724731V43.2753H60V0.724731H0ZM8.38172 11.5986H5.61996C5.12602 11.5986 4.72547 11.1981 4.72547 10.7042V5.66817C4.72547 5.17422 5.12602 4.77391 5.61996 4.77391H8.3816C8.87555 4.77391 9.27586 5.17422 9.27586 5.66817V10.7042C9.27586 11.1981 8.87555 11.5986 8.38172 11.5986ZM5.61996 17.9973H8.3816C8.87555 17.9973 9.27586 18.3978 9.27586 18.8918V23.9279C9.27586 24.4218 8.87555 24.8222 8.3816 24.8222H5.61996C5.12602 24.8222 4.72547 24.4218 4.72547 23.9279V18.8918C4.72547 18.3978 5.12602 17.9973 5.61996 17.9973ZM5.61996 32.4013H8.3816C8.87555 32.4013 9.27586 32.8019 9.27586 33.2957V38.3318C9.27586 38.8258 8.87555 39.2262 8.3816 39.2262H5.61996C5.12602 39.2262 4.72547 38.8258 4.72547 38.3318V33.2957C4.72547 32.8019 5.12602 32.4013 5.61996 32.4013ZM23.3182 30.3034V13.6966C23.3182 13.0081 24.0634 12.5778 24.6596 12.9221L39.0415 21.2255C39.6377 21.5697 39.6377 22.4303 39.0415 22.7745L24.6598 31.0779C24.0635 31.4221 23.3182 30.9918 23.3182 30.3034ZM54.3798 11.5986H51.6183C51.1243 11.5986 50.7238 11.1981 50.7238 10.7042V5.66817C50.7238 5.17422 51.1243 4.77391 51.6183 4.77391H54.3798C54.8737 4.77391 55.2741 5.17422 55.2741 5.66817V10.7042C55.2741 11.1981 54.8737 11.5986 54.3798 11.5986ZM51.6183 17.9973H54.3798C54.8737 17.9973 55.2741 18.3978 55.2741 18.8918V23.9279C55.2741 24.4218 54.8737 24.8222 54.3798 24.8222H51.6183C51.1243 24.8222 50.7238 24.4218 50.7238 23.9279V18.8918C50.7239 18.3978 51.1245 17.9973 51.6183 17.9973ZM51.6183 32.4013H54.3798C54.8737 32.4013 55.2741 32.8019 55.2741 33.2957V38.3318C55.2741 38.8258 54.8737 39.2262 54.3798 39.2262H51.6183C51.1243 39.2262 50.7238 38.8258 50.7238 38.3318V33.2957C50.7239 32.8019 51.1245 32.4013 51.6183 32.4013Z" fill="current"/>
</svg>
