<svg viewBox="0 0 44 30" fill="none" xmlns="http://www.w3.org/2000/svg">
<path fill-rule="evenodd" clip-rule="evenodd" d="M43.9257 15C43.9257 14.103 43.4405 13.514 42.47 12.3358C38.92 8.02535 31.0892 0 22 0C12.9107 0 5.08017 8.02535 1.52994 12.3358C0.559541 13.514 0.0743408 14.103 0.0743408 15C0.0743408 15.897 0.559541 16.486 1.52994 17.6642C5.08017 21.9747 12.9107 30 22 30C31.0892 30 38.92 21.9747 42.47 17.6642C43.4405 16.486 43.9257 15.897 43.9257 15ZM22 22.5C26.1422 22.5 29.5 19.1423 29.5 15C29.5 10.8577 26.1422 7.5 22 7.5C17.858 7.5 14.5 10.8577 14.5 15C14.5 19.1423 17.858 22.5 22 22.5Z" fill="current"/>
</svg>
