<svg viewBox="0 0 54 54" fill="none" xmlns="http://www.w3.org/2000/svg">
<path fill-rule="evenodd" clip-rule="evenodd" d="M31.2889 9.27009L13.1408 27.4182C12.8839 27.677 12.7058 28.0032 12.6326 28.3595L9.84451 41.6438C9.71513 42.2607 9.90451 42.902 10.3489 43.3482C10.7914 43.7963 11.4308 43.9913 12.0476 43.8676L25.4408 41.1901C25.8045 41.117 26.1383 40.9388 26.3989 40.6763L44.547 22.5282L31.2889 9.27009ZM33.9401 6.61884L47.1983 19.877L50.5601 16.517C54.222 12.8551 54.222 6.91884 50.5601 3.25696C48.8014 1.50009 46.4183 0.511963 43.932 0.511963C41.4439 0.511963 39.0608 1.50009 37.302 3.25696L33.9401 6.61884Z" fill="current"/>
<path fill-rule="evenodd" clip-rule="evenodd" d="M3.61951 53.012H48.6195C50.172 53.012 51.432 51.752 51.432 50.1995C51.432 48.647 50.172 47.387 48.6195 47.387H3.61951C2.06701 47.387 0.807007 48.647 0.807007 50.1995C0.807007 51.752 2.06701 53.012 3.61951 53.012Z" fill="current"/>
</svg>
